REM DIRINDEX 1\2\3,1\2\4,1\2\5,1\2\6
REM DIRNAME cjc157,folder01,folder02,folder03,folder04,folder05
TITLE ""
FILE "021 021.mp3" MP3
  TRACK 01 AUDIO
    TITLE "0:"
    INDEX 01 00:00:00
  TRACK 02 AUDIO
    TITLE "3:cjc157_0768"
    INDEX 01 00:00:11
  TRACK 03 AUDIO
    TITLE "0:"
    INDEX 01 00:01:52
  TRACK 04 AUDIO
    TITLE "4:cjc157_0769"
    INDEX 01 00:02:28
  TRACK 05 AUDIO
    TITLE "0:"
    INDEX 01 00:03:27
  TRACK 06 AUDIO
    TITLE "5:cjc157_0770"
    INDEX 01 00:03:72
  TRACK 07 AUDIO
    TITLE "0:"
    INDEX 01 00:06:06
  TRACK 08 AUDIO
    TITLE "5:cjc157_0771"
    INDEX 01 00:06:51
  TRACK 09 AUDIO
    TITLE "0:"
    INDEX 01 00:08:64
  TRACK 10 AUDIO
    TITLE "3:cjc157_0772"
    INDEX 01 00:09:36
  TRACK 11 AUDIO
    TITLE "0:"
    INDEX 01 00:10:65
  TRACK 12 AUDIO
    TITLE "4:cjc157_0773"
    INDEX 01 00:11:35
  TRACK 13 AUDIO
    TITLE "0:"
    INDEX 01 00:12:56
  TRACK 14 AUDIO
    TITLE "5:cjc157_0774"
    INDEX 01 00:13:26
  TRACK 15 AUDIO
    TITLE "0:"
    INDEX 01 00:15:23
  TRACK 16 AUDIO
    TITLE "5:cjc157_0775"
    INDEX 01 00:16:00
  TRACK 17 AUDIO
    TITLE "0:"
    INDEX 01 00:18:33
  TRACK 18 AUDIO
    TITLE "3:cjc157_0776"
    INDEX 01 00:18:74
  TRACK 19 AUDIO
    TITLE "0:"
    INDEX 01 00:20:16
  TRACK 20 AUDIO
    TITLE "4:cjc157_0777"
    INDEX 01 00:20:59
  TRACK 21 AUDIO
    TITLE "0:"
    INDEX 01 00:22:05
  TRACK 22 AUDIO
    TITLE "5:cjc157_0778"
    INDEX 01 00:22:46
  TRACK 23 AUDIO
    TITLE "0:"
    INDEX 01 00:25:68
  TRACK 24 AUDIO
    TITLE "3:cjc157_0779"
    INDEX 01 00:26:40
  TRACK 25 AUDIO
    TITLE "0:"
    INDEX 01 00:27:47
  TRACK 26 AUDIO
    TITLE "4:cjc157_0780"
    INDEX 01 00:28:17
  TRACK 27 AUDIO
    TITLE "0:"
    INDEX 01 00:29:23
  TRACK 28 AUDIO
    TITLE "5:cjc157_0781"
    INDEX 01 00:29:68
  TRACK 29 AUDIO
    TITLE "0:"
    INDEX 01 00:32:64
  TRACK 30 AUDIO
    TITLE "5:cjc157_0782"
    INDEX 01 00:33:36
  TRACK 31 AUDIO
    TITLE "0:"
    INDEX 01 00:36:19
  TRACK 32 AUDIO
    TITLE "3:cjc157_0783"
    INDEX 01 00:36:64
  TRACK 33 AUDIO
    TITLE "0:"
    INDEX 01 00:37:67
  TRACK 34 AUDIO
    TITLE "4:cjc157_0784"
    INDEX 01 00:38:39
  TRACK 35 AUDIO
    TITLE "0:"
    INDEX 01 00:39:47
  TRACK 36 AUDIO
    TITLE "5:cjc157_0785"
    INDEX 01 00:40:21
  TRACK 37 AUDIO
    TITLE "0:"
    INDEX 01 00:42:68
  TRACK 38 AUDIO
    TITLE "5:cjc157_0786"
    INDEX 01 00:43:35
  TRACK 39 AUDIO
    TITLE "0:"
    INDEX 01 00:46:47
  TRACK 40 AUDIO
    TITLE "5:cjc157_0787"
    INDEX 01 00:47:17
  TRACK 41 AUDIO
    TITLE "0:"
    INDEX 01 00:48:42
  TRACK 42 AUDIO
    TITLE "3:cjc157_0788"
    INDEX 01 00:49:12
  TRACK 43 AUDIO
    TITLE "0:"
    INDEX 01 00:50:13
  TRACK 44 AUDIO
    TITLE "4:cjc157_0789"
    INDEX 01 00:50:62
  TRACK 45 AUDIO
    TITLE "0:"
    INDEX 01 00:51:63
  TRACK 46 AUDIO
    TITLE "5:cjc157_0790"
    INDEX 01 00:52:30
  TRACK 47 AUDIO
    TITLE "0:"
    INDEX 01 00:54:17
  TRACK 48 AUDIO
    TITLE "5:cjc157_0791"
    INDEX 01 00:54:64
  TRACK 49 AUDIO
    TITLE "0:"
    INDEX 01 00:57:46
  TRACK 50 AUDIO
    TITLE "3:cjc157_0792"
    INDEX 01 00:58:28
  TRACK 51 AUDIO
    TITLE "0:"
    INDEX 01 00:59:61
  TRACK 52 AUDIO
    TITLE "4:cjc157_0793"
    INDEX 01 01:00:33
  TRACK 53 AUDIO
    TITLE "0:"
    INDEX 01 01:01:50
  TRACK 54 AUDIO
    TITLE "5:cjc157_0794"
    INDEX 01 01:02:20
  TRACK 55 AUDIO
    TITLE "0:"
    INDEX 01 01:04:50
  TRACK 56 AUDIO
    TITLE "3:cjc157_0795"
    INDEX 01 01:05:21
  TRACK 57 AUDIO
    TITLE "0:"
    INDEX 01 01:06:34
  TRACK 58 AUDIO
    TITLE "4:cjc157_0796"
    INDEX 01 01:07:02
  TRACK 59 AUDIO
    TITLE "0:"
    INDEX 01 01:08:13
  TRACK 60 AUDIO
    TITLE "5:cjc157_0797"
    INDEX 01 01:08:64
  TRACK 61 AUDIO
    TITLE "0:"
    INDEX 01 01:11:56
  TRACK 62 AUDIO
    TITLE "3:cjc157_0798"
    INDEX 01 01:12:26
  TRACK 63 AUDIO
    TITLE "0:"
    INDEX 01 01:13:57
  TRACK 64 AUDIO
    TITLE "4:cjc157_0799"
    INDEX 01 01:14:25
  TRACK 65 AUDIO
    TITLE "0:"
    INDEX 01 01:15:39
  TRACK 66 AUDIO
    TITLE "5:cjc157_0800"
    INDEX 01 01:16:07
  TRACK 67 AUDIO
    TITLE "0:"
    INDEX 01 01:19:21
  TRACK 68 AUDIO
    TITLE "3:cjc157_0801"
    INDEX 01 01:19:68
  TRACK 69 AUDIO
    TITLE "0:"
    INDEX 01 01:21:12
  TRACK 70 AUDIO
    TITLE "4:cjc157_0802"
    INDEX 01 01:21:55
  TRACK 71 AUDIO
    TITLE "0:"
    INDEX 01 01:22:68
  TRACK 72 AUDIO
    TITLE "5:cjc157_0803"
    INDEX 01 01:23:40
  TRACK 73 AUDIO
    TITLE "0:"
    INDEX 01 01:26:01
  TRACK 74 AUDIO
    TITLE "5:cjc157_0804"
    INDEX 01 01:26:44
  TRACK 75 AUDIO
    TITLE "0:"
    INDEX 01 01:28:59
  TRACK 76 AUDIO
    TITLE "5:cjc157_0805"
    INDEX 01 01:29:31
  TRACK 77 AUDIO
    TITLE "0:"
    INDEX 01 01:31:73
